<svg width="124" height="21" viewBox="0 0 124 21" fill="none" xmlns="http://www.w3.org/2000/svg">
<g clip-path="url(#clip0_1_2)">
<path d="M20 20H0V0H20L9.79292 9.85527L20 20Z" fill="url(#paint0_radial_1_2)"/>
<path d="M29.5261 0.399994H32.9281V9.29L41.0201 0.399994H45.2061L36.5961 9.85L45.3881 20H41.0761L32.9281 10.648V20H29.5261V0.399994ZM47.8171 0.399994H51.1211V20H47.8171V0.399994ZM55.1407 5.66399H58.4447V20H55.1407V5.66399ZM55.0287 0.399994H58.5567V3.60599H55.0287V0.399994ZM62.2774 0.399994H65.5814V7.76399C66.0947 6.98932 66.7714 6.39199 67.6114 5.97199C68.4514 5.54266 69.4034 5.32799 70.4674 5.32799C71.7367 5.32799 72.8707 5.64999 73.8694 6.29399C74.8774 6.92866 75.666 7.82 76.2354 8.968C76.8047 10.1067 77.0894 11.3947 77.0894 12.832C77.0894 14.2787 76.8047 15.5713 76.2354 16.71C75.666 17.8487 74.8774 18.74 73.8694 19.384C72.8614 20.0187 71.7227 20.336 70.4534 20.336C69.3894 20.336 68.4374 20.126 67.5974 19.706C66.7667 19.2767 66.0947 18.6747 65.5814 17.9V20H62.2774V0.399994ZM69.6554 17.396C70.4487 17.396 71.1487 17.2047 71.7554 16.822C72.3714 16.4393 72.8474 15.9027 73.1834 15.212C73.5287 14.512 73.7014 13.7187 73.7014 12.832C73.7014 11.9453 73.5287 11.1567 73.1834 10.466C72.8474 9.76599 72.3714 9.22467 71.7554 8.842C71.1487 8.45933 70.4487 8.26799 69.6554 8.26799C68.89 8.26799 68.2087 8.44067 67.6114 8.786C67.0234 9.13133 66.552 9.61666 66.1974 10.242C65.8427 10.8673 65.6374 11.5907 65.5814 12.412V13.252C65.6374 14.0733 65.8427 14.7967 66.1974 15.422C66.552 16.0473 67.0234 16.5327 67.6114 16.878C68.2087 17.2233 68.89 17.396 69.6554 17.396ZM85.2894 20.336C84.1134 20.336 83.0681 20.154 82.1534 19.79C81.2388 19.4167 80.5108 18.894 79.9694 18.222C79.4281 17.55 79.1248 16.7707 79.0594 15.884H82.3634C82.4474 16.4533 82.7461 16.9013 83.2594 17.228C83.7821 17.5453 84.4541 17.704 85.2754 17.704C86.0594 17.704 86.7034 17.5453 87.2074 17.228C87.7114 16.9013 87.9634 16.4673 87.9634 15.926C87.9634 15.5247 87.8234 15.1747 87.5434 14.876C87.2634 14.5773 86.8994 14.3907 86.4514 14.316L83.2734 13.798C82.5081 13.6673 81.8408 13.4153 81.2714 13.042C80.7021 12.6687 80.2588 12.1973 79.9414 11.628C79.6334 11.0587 79.4794 10.4287 79.4794 9.738C79.4794 8.88867 79.7081 8.13266 80.1654 7.46999C80.6228 6.79799 81.2714 6.27532 82.1114 5.90199C82.9608 5.51932 83.9361 5.32799 85.0374 5.32799C86.1201 5.32799 87.0908 5.50532 87.9494 5.85999C88.8081 6.21466 89.4941 6.71866 90.0074 7.37199C90.5208 8.02533 90.8101 8.79067 90.8754 9.668H87.5854C87.4921 9.12667 87.2121 8.69266 86.7454 8.36599C86.2881 8.03932 85.7188 7.87599 85.0374 7.87599C84.3281 7.87599 83.7541 8.03466 83.3154 8.35199C82.8861 8.66932 82.6714 9.08466 82.6714 9.59799C82.6714 9.96199 82.8021 10.2513 83.0634 10.466C83.3341 10.6713 83.7448 10.8253 84.2954 10.928L87.4454 11.474C88.2014 11.6047 88.8594 11.88 89.4194 12.3C89.9888 12.7107 90.4274 13.224 90.7354 13.84C91.0434 14.4467 91.1974 15.1 91.1974 15.8C91.1974 16.6773 90.9361 17.4613 90.4134 18.152C89.9001 18.8333 89.1954 19.37 88.2994 19.762C87.4034 20.1447 86.4001 20.336 85.2894 20.336ZM94.0508 15.996H98.0548V20H94.0508V15.996ZM101.898 5.66399H105.202V20H101.898V5.66399ZM101.786 0.399994H105.314V3.60599H101.786V0.399994ZM115.587 20.336C114.169 20.336 112.885 20.0093 111.737 19.356C110.589 18.7027 109.689 17.8067 109.035 16.668C108.382 15.52 108.055 14.2413 108.055 12.832C108.055 11.4227 108.382 10.1487 109.035 9.01C109.689 7.862 110.589 6.96132 111.737 6.30799C112.885 5.65466 114.169 5.32799 115.587 5.32799C116.997 5.32799 118.275 5.65466 119.423 6.30799C120.571 6.96132 121.472 7.862 122.125 9.01C122.788 10.1487 123.119 11.4227 123.119 12.832C123.119 14.2413 122.788 15.52 122.125 16.668C121.472 17.8067 120.571 18.7027 119.423 19.356C118.275 20.0093 116.997 20.336 115.587 20.336ZM115.587 17.382C116.39 17.382 117.099 17.1907 117.715 16.808C118.341 16.4253 118.826 15.8887 119.171 15.198C119.517 14.5073 119.689 13.7187 119.689 12.832C119.689 11.9453 119.517 11.1567 119.171 10.466C118.826 9.76599 118.341 9.22467 117.715 8.842C117.099 8.45933 116.39 8.26799 115.587 8.26799C114.785 8.26799 114.071 8.45933 113.445 8.842C112.829 9.22467 112.349 9.76599 112.003 10.466C111.658 11.1567 111.485 11.9453 111.485 12.832C111.485 13.7187 111.658 14.5073 112.003 15.198C112.349 15.8887 112.829 16.4253 113.445 16.808C114.071 17.1907 114.785 17.382 115.587 17.382Z" fill="white"/>
</g>
<defs>
<radialGradient id="paint0_radial_1_2" cx="0" cy="0" r="1" gradientUnits="userSpaceOnUse" gradientTransform="translate(19.3354 0.822178) scale(22.9097)">
<stop offset="0.00343514" stop-color="#EF4857"/>
<stop offset="0.4689" stop-color="#D211EC"/>
<stop offset="1" stop-color="#7F52FF"/>
</radialGradient>
<clipPath id="clip0_1_2">
<rect width="124" height="21" fill="white"/>
</clipPath>
</defs>
</svg>
