<svg width="48" height="48" viewBox="0 0 48 48" fill="none" xmlns="http://www.w3.org/2000/svg">
<g id="kt__icons">
<path id="Subtract" d="M45 1C46.1046 1 47 1.89543 47 3V26.6865C47 27.2078 46.7963 27.7086 46.4326 28.082L28.5889 46.3955C28.2124 46.7819 27.6957 47 27.1562 47H3C1.89543 47 1 46.1046 1 45V20.8281C1.00008 20.2978 1.21094 19.7891 1.58594 19.4141L19.4141 1.58594C19.7891 1.21094 20.2978 1.00008 20.8281 1H45ZM6.09961 22C4.94013 22.0002 4.00021 22.9401 4 24.0996V41.9004C4.0002 42.8587 4.74201 44 6.09277 44H23.7627C25.7447 44 26.4008 41.7593 25.3506 40.5303L25.2432 40.415L17.8281 33L25.2432 25.585C26.566 24.2621 25.6296 22.0002 23.7588 22H6.09961ZM23.7588 24C23.8367 24.0001 23.8804 24.0827 23.8477 24.1455L23.8291 24.1709L15.0703 32.9297C15.0318 32.9686 15.0318 33.0314 15.0703 33.0703L23.8291 41.8291C23.8841 41.8841 23.8603 41.9735 23.7939 41.9951L23.7627 42H6.09277C6.03771 42 6.00018 41.9554 6 41.9004V24.0996C6.00016 24.0582 6.02553 24.0229 6.06152 24.0078L6.09961 24H23.7588Z" fill="white" fill-opacity="0.5"/>
</g>
</svg>
