<svg width="47" height="48" viewBox="0 0 47 48" fill="none" xmlns="http://www.w3.org/2000/svg">
<g id="Group 1204">
<path id="Subtract" d="M45 0C46.1046 0 47 0.895431 47 2V41C47 42.1046 46.1046 43 45 43H34V9C34 7.34315 32.6569 6 31 6H16V2C16 0.895431 16.8954 0 18 0H45ZM18 4H20V2H18V4ZM22 4H24V2H22V4ZM26 2V4H28V2H26Z" fill="white" fill-opacity="0.5"/>
<path id="Subtract_2" d="M30 8C31.1046 8 32 8.89543 32 10V46C32 47.1046 31.1046 48 30 48H2C0.895431 48 1.61067e-08 47.1046 0 46V10C2.57706e-07 8.89543 0.895431 8 2 8H30ZM16 40C16 41.6569 17.3431 43 19 43H30V41H19C18.4477 41 18 40.5523 18 40V10H16V40ZM2 12H4V10H2V12ZM6 12H8V10H6V12ZM10 10V12H12V10H10Z" fill="white" fill-opacity="0.5"/>
</g>
</svg>
