<svg width="420" height="390" viewBox="0 0 420 390" fill="none" xmlns="http://www.w3.org/2000/svg">
<g clip-path="url(#clip0_2972_49919)">
<path d="M233.892 372.886C247.463 372.886 258.504 361.846 258.504 348.273V220.316C258.504 211.871 251.658 205.023 243.212 205.023C234.767 205.023 227.92 211.871 227.92 220.316V343.512C222.442 345.838 218.6 351.267 218.6 357.595C218.6 366.039 225.446 372.886 233.892 372.886Z" fill="#8864F7"/>
<path d="M233.892 372.886C247.463 372.886 258.504 361.846 258.504 348.273V220.316C258.504 211.871 251.658 205.023 243.212 205.023C234.767 205.023 227.92 211.871 227.92 220.316V343.512C222.442 345.838 218.6 351.267 218.6 357.595C218.6 366.039 225.446 372.886 233.892 372.886Z" fill="url(#paint0_linear_2972_49919)" fill-opacity="0.2"/>
<path d="M39.7466 368.955L45.2509 369.58C60.11 371.268 73.5714 360.552 75.2596 345.693L89.4165 221.046C90.3697 212.654 84.3404 205.08 75.9486 204.126C67.5568 203.173 59.9821 209.203 59.0288 217.594L45.2624 338.802L43.1985 338.567C34.8067 337.614 27.2319 343.645 26.2787 352.035C25.3255 360.427 31.3548 368.002 39.7466 368.955Z" fill="#8864F7"/>
<path d="M39.7466 368.955L45.2509 369.58C60.11 371.268 73.5714 360.552 75.2596 345.693L89.4165 221.046C90.3697 212.654 84.3404 205.08 75.9486 204.126C67.5568 203.173 59.9821 209.203 59.0288 217.594L45.2624 338.802L43.1985 338.567C34.8067 337.614 27.2319 343.645 26.2787 352.035C25.3255 360.427 31.3548 368.002 39.7466 368.955Z" fill="url(#paint1_linear_2972_49919)" fill-opacity="0.2"/>
<path d="M196.244 382.82C204.627 382.82 211.457 376.064 211.533 367.664C211.608 359.219 204.822 352.312 196.378 352.237L188.603 352.168C189.046 350.401 189.489 348.641 189.932 346.895C200.268 305.978 211.984 259.602 172.773 215.688C167.149 209.389 157.481 208.843 151.182 214.467C144.882 220.091 144.336 229.758 149.96 236.058C178.354 267.858 169.979 301.013 160.279 339.404C158.248 347.441 156.15 355.753 154.385 364.14C153.44 368.625 154.559 373.298 157.431 376.871C160.304 380.444 164.627 382.539 169.213 382.58L196.106 382.82C196.152 382.82 196.199 382.82 196.244 382.82Z" fill="#8864F7"/>
<path d="M196.244 382.82C204.627 382.82 211.457 376.064 211.533 367.664C211.608 359.219 204.822 352.312 196.378 352.237L188.603 352.168C189.046 350.401 189.489 348.641 189.932 346.895C200.268 305.978 211.984 259.602 172.773 215.688C167.149 209.389 157.481 208.843 151.182 214.467C144.882 220.091 144.336 229.758 149.96 236.058C178.354 267.858 169.979 301.013 160.279 339.404C158.248 347.441 156.15 355.753 154.385 364.14C153.44 368.625 154.559 373.298 157.431 376.871C160.304 380.444 164.627 382.539 169.213 382.58L196.106 382.82C196.152 382.82 196.199 382.82 196.244 382.82Z" fill="url(#paint2_linear_2972_49919)" fill-opacity="0.2"/>
<path d="M125.82 382.819C134.203 382.819 141.035 376.06 141.109 367.66C141.181 359.215 134.394 352.31 125.949 352.236L123.329 352.215C145.609 307.478 164.506 252.522 139.357 214.685C134.682 207.651 125.191 205.738 118.156 210.414C111.125 215.088 109.212 224.581 113.886 231.614C128.957 254.288 119.146 297.452 84.7254 359.908C82.1266 364.624 82.2005 370.36 84.919 375.008C87.6375 379.658 92.602 382.534 97.9865 382.579L125.685 382.819C125.729 382.819 125.775 382.819 125.82 382.819Z" fill="#8864F7"/>
<path d="M125.82 382.819C134.203 382.819 141.035 376.06 141.109 367.66C141.181 359.215 134.394 352.31 125.949 352.236L123.329 352.215C145.609 307.478 164.506 252.522 139.357 214.685C134.682 207.651 125.191 205.738 118.156 210.414C111.125 215.088 109.212 224.581 113.886 231.614C128.957 254.288 119.146 297.452 84.7254 359.908C82.1266 364.624 82.2005 370.36 84.919 375.008C87.6375 379.658 92.602 382.534 97.9865 382.579L125.685 382.819C125.729 382.819 125.775 382.819 125.82 382.819Z" fill="url(#paint3_linear_2972_49919)" fill-opacity="0.2"/>
<path d="M261.266 261.372L58.1226 220.171C42.3004 216.962 32.0744 201.533 35.2834 185.711L67.8581 25.1073C73.0753 -0.616748 105.399 -9.3744 122.89 10.1976L185.118 79.8372C188.649 83.7888 194.36 84.9451 199.149 82.6786L283.396 42.815C307.13 31.5845 333.507 52.2455 328.288 77.9787L295.724 238.534C292.515 254.355 277.088 264.581 261.266 261.372Z" fill="#8864F7"/>
<path d="M85.8904 205.666L260.871 242.511C273.07 244.98 284.96 237.094 287.429 224.896L304.028 142.883C306.497 130.685 298.61 118.795 286.412 116.326L111.43 79.4796C99.2319 77.0106 87.3423 84.8978 84.8732 97.0962L68.2733 179.108C65.8042 191.307 73.6923 203.197 85.8904 205.666Z" fill="black"/>
<path d="M242.614 149.43C230.257 149.43 219.509 158.242 217.058 170.384C215.678 177.222 217.043 184.188 220.902 189.999C224.761 195.811 230.65 199.771 237.489 201.151C239.211 201.499 240.965 201.676 242.699 201.676C255.056 201.676 265.803 192.862 268.255 180.72C271.104 166.604 261.939 152.803 247.824 149.953C246.1 149.606 244.348 149.43 242.614 149.43ZM242.614 134.943C245.277 134.943 247.979 135.206 250.691 135.754C272.671 140.19 286.892 161.607 282.455 183.586C278.565 202.855 261.627 216.163 242.699 216.163C240.036 216.163 237.333 215.898 234.622 215.35C212.641 210.914 198.42 189.497 202.858 167.518C206.748 148.249 223.686 134.943 242.614 134.943Z" fill="white"/>
<path d="M148.777 130.496C136.421 130.496 125.673 139.31 123.222 151.452C121.841 158.289 123.206 165.255 127.065 171.066C130.923 176.877 136.815 180.837 143.653 182.217C145.376 182.565 147.129 182.742 148.864 182.742C161.219 182.742 171.967 173.929 174.418 161.786C177.268 147.672 168.103 133.87 153.987 131.021C152.265 130.673 150.511 130.496 148.777 130.496ZM148.777 116.01C151.441 116.01 154.143 116.273 156.855 116.821C178.835 121.258 193.055 142.673 188.619 164.654C184.729 183.923 167.791 197.229 148.864 197.229C146.199 197.229 143.497 196.965 140.785 196.418C118.806 191.98 104.585 170.565 109.021 148.584C112.911 129.316 129.849 116.01 148.777 116.01Z" fill="white"/>
<path d="M199.338 212.355C200.463 212.355 201.471 211.564 201.702 210.419L203.318 202.437C204.817 195.021 200.007 187.768 192.592 186.267C185.174 184.764 177.923 189.578 176.422 196.993L174.886 204.585C174.622 205.892 175.467 207.165 176.774 207.429C178.075 207.694 179.355 206.85 179.619 205.543L181.155 197.951C182.128 193.146 186.828 190.027 191.633 191C196.439 191.973 199.556 196.673 198.585 201.48L196.969 209.46C196.705 210.768 197.55 212.041 198.857 212.305C199.018 212.338 199.18 212.355 199.338 212.355Z" fill="white"/>
<path d="M200.264 115.164C200.264 115.164 192.362 126.725 178.596 118.202" stroke="white" stroke-width="3.19079" stroke-miterlimit="10" stroke-linecap="round"/>
<path d="M210.537 118.25C210.537 118.25 214.949 131.129 230.07 129.216" stroke="white" stroke-width="3.19079" stroke-miterlimit="10" stroke-linecap="round"/>
<path opacity="0.5" d="M148.812 203.791C158.157 203.791 165.132 201.302 165.73 201.082C169.122 199.832 170.857 196.07 169.609 192.679C168.362 189.296 164.611 187.56 161.229 188.794C160.241 189.147 138.366 196.698 123.942 179.088C121.653 176.292 117.529 175.884 114.733 178.173C111.938 180.463 111.527 184.586 113.816 187.381C124.652 200.61 138.247 203.791 148.812 203.791Z" fill="#00A8FF"/>
<path opacity="0.5" d="M209.894 201.096C212.183 198.299 216.304 197.889 219.103 200.176C230.376 209.396 241.878 211.973 253.287 207.834C262.193 204.604 267.935 198.374 268.057 198.24C270.461 195.557 274.583 195.323 277.278 197.72C279.979 200.122 280.22 204.258 277.817 206.958C277.733 207.053 275.287 209.736 271.001 212.871C271.006 212.981 271.018 213.089 271.018 213.201V228.601C271.018 232.937 267.502 236.453 263.165 236.453C258.829 236.453 255.313 232.937 255.313 228.601V220.89C251.41 222.098 247.105 222.874 242.475 222.874C233.03 222.874 222.242 219.65 210.816 210.305C208.019 208.016 207.606 203.893 209.894 201.096Z" fill="#00A8FF"/>
<path opacity="0.3" d="M265.746 219.533V227.871" stroke="white" stroke-width="2.39309" stroke-linecap="round" stroke-linejoin="round"/>
<path d="M295.209 277.582C308.476 263.996 330.245 263.74 343.829 277.008C345.368 278.511 346.728 280.127 347.924 281.823C347.814 281.897 347.692 281.946 347.594 282.043L320.655 308.982L308.366 296.692C307.791 296.116 306.926 295.944 306.173 296.256C305.421 296.568 304.931 297.301 304.931 298.115V343.593C304.931 344.704 305.832 345.604 306.943 345.604C308.054 345.604 308.955 344.704 308.955 343.593V302.973L319.233 313.25C320.017 314.035 321.293 314.035 322.078 313.25L350.055 285.272C353.887 292.371 355.057 300.538 353.527 308.293C364.481 305.862 376.406 308.825 385.032 317.249C398.616 330.517 398.873 352.285 385.605 365.869C358.891 393.222 287.017 376.391 287.017 376.391C287.017 376.391 268.494 304.933 295.209 277.582Z" fill="url(#paint4_radial_2972_49919)"/>
<path d="M306.168 296.253C306.921 295.942 307.786 296.114 308.36 296.69L320.65 308.98L347.589 282.041C347.69 281.939 347.817 281.888 347.932 281.812C348.805 283.084 349.589 284.447 350.045 285.274L322.072 313.247C321.287 314.033 320.012 314.033 319.227 313.247L308.95 302.97V343.589C308.95 344.701 308.049 345.602 306.938 345.602C305.826 345.602 304.925 344.701 304.925 343.589V298.112C304.925 297.298 305.416 296.565 306.168 296.253Z" fill="#DE0039"/>
</g>
<defs>
<linearGradient id="paint0_linear_2972_49919" x1="238.552" y1="205.023" x2="238.552" y2="372.886" gradientUnits="userSpaceOnUse">
<stop/>
<stop offset="0.528846" stop-opacity="0"/>
</linearGradient>
<linearGradient id="paint1_linear_2972_49919" x1="57.8476" y1="204.027" x2="57.8476" y2="369.755" gradientUnits="userSpaceOnUse">
<stop/>
<stop offset="0.528846" stop-opacity="0"/>
</linearGradient>
<linearGradient id="paint2_linear_2972_49919" x1="178.804" y1="210.582" x2="178.804" y2="382.82" gradientUnits="userSpaceOnUse">
<stop/>
<stop offset="0.350962" stop-opacity="0"/>
</linearGradient>
<linearGradient id="paint3_linear_2972_49919" x1="117.079" y1="207.855" x2="117.079" y2="382.819" gradientUnits="userSpaceOnUse">
<stop/>
<stop offset="0.350962" stop-opacity="0"/>
</linearGradient>
<radialGradient id="paint4_radial_2972_49919" cx="0" cy="0" r="1" gradientUnits="userSpaceOnUse" gradientTransform="translate(321.279 320.506) rotate(180) scale(95.2137 95.2137)">
<stop stop-color="#FF0052"/>
<stop offset="0.455647" stop-color="#FD0051"/>
<stop offset="0.624283" stop-color="#F6004E"/>
<stop offset="0.745304" stop-color="#EA004A"/>
<stop offset="0.843494" stop-color="#D90044"/>
<stop offset="0.926859" stop-color="#C3003C"/>
<stop offset="1" stop-color="#A90033"/>
</radialGradient>
<clipPath id="clip0_2972_49919">
<rect width="420" height="390" fill="white" transform="matrix(-1 0 0 1 420 0)"/>
</clipPath>
</defs>
</svg>
