<svg width="400" height="295" viewBox="0 0 400 295" fill="none" xmlns="http://www.w3.org/2000/svg">
<g clip-path="url(#clip0_11420_2828)">
<path d="M193.177 146C185.97 146 180.114 151.856 180.001 159.063C179.889 166.383 185.745 172.239 193.065 172.351L199.709 172.464C199.371 174.041 198.92 175.504 198.583 176.968C189.686 212.216 179.551 252.081 213.335 289.919C218.177 295.324 226.51 295.775 231.916 290.932C237.321 286.09 237.772 277.757 232.929 272.351C208.492 244.986 215.7 216.495 224.033 183.387C225.835 176.518 227.637 169.311 229.101 162.104C229.889 158.275 228.988 154.221 226.51 151.18C224.033 148.14 220.317 146.338 216.375 146.225L193.29 146C193.29 146 193.29 146 193.177 146Z" fill="url(#paint0_linear_11420_2828)"/>
<path d="M176.443 122.331C169.542 120.252 162.246 124.171 160.06 131.039C157.842 138.016 161.76 145.311 168.737 147.53L170.893 148.179C141.456 179.537 112.183 220.116 123.609 257.546C125.737 264.538 133.046 268.385 140.005 266.365C146.997 264.237 150.845 256.928 148.824 249.968C142.042 227.579 160.845 194.431 204.694 151.537C208.02 148.305 209.341 143.528 208.321 139.105C207.225 134.541 203.81 131.042 199.421 129.603L176.626 122.503C176.443 122.331 176.443 122.331 176.443 122.331Z" fill="url(#paint1_linear_11420_2828)"/>
<path d="M134.429 149.549C132.627 149.549 130.825 149.211 129.023 148.422C127.897 147.859 99.9694 135.134 83.8658 99.4359C79.6991 90.0891 73.0549 84.1206 64.1586 81.6431C57.7396 79.8413 52.3342 80.517 52.2216 80.517C45.0144 81.6431 38.2577 76.8008 37.1315 69.5936C36.118 62.3864 41.073 55.6296 48.1676 54.5035C62.4694 52.2512 93.3252 56.5305 107.852 88.6251C112.807 99.5485 119.564 108.895 128.235 116.328C134.767 121.958 139.834 124.436 139.947 124.436C146.591 127.364 149.519 135.134 146.591 141.778C144.339 146.621 139.496 149.549 134.429 149.549Z" fill="url(#paint2_linear_11420_2828)"/>
<path d="M283.213 165.681C277.019 166.131 271.276 162.302 269.474 156.109C267.56 149.127 271.614 141.807 278.596 139.892C279.384 139.667 299.879 133.361 315.307 109.149C328.258 88.8789 346.839 82.5726 361.816 82.0096C370.825 81.6717 377.469 90.3429 374.767 99.0141C373.078 104.307 368.235 108.136 362.717 108.248C355.397 108.474 345.15 111.289 337.492 123.338C316.433 156.221 286.929 164.78 285.69 165.23C284.789 165.456 284.001 165.568 283.213 165.681Z" fill="url(#paint3_linear_11420_2828)"/>
<path d="M275 196.396L125.225 169.144C113.514 167.005 105.856 155.856 107.996 144.144L129.505 25.7883C132.996 6.8694 156.532 -0.112587 169.707 14.0766L216.441 64.3018C219.144 67.1171 223.311 67.9054 226.802 66.2162L288.063 35.6982C305.293 27.1397 325 41.8919 321.509 60.8108L300 179.167C297.86 190.878 286.599 198.536 275 196.396Z" fill="url(#paint4_linear_11420_2828)"/>
<path d="M137.049 155.405L266.103 179.842C275.112 181.532 283.671 175.563 285.36 166.554L296.284 106.081C297.973 97.072 292.004 88.5135 282.995 86.8243L153.941 62.3874C144.932 60.6982 136.374 66.6666 134.685 75.6756L123.761 136.149C122.185 145.158 128.153 153.829 137.049 155.405Z" fill="black"/>
<path d="M246.622 105.631C247.86 105.631 249.212 105.743 250.45 105.968C260.811 107.883 267.793 117.905 265.878 128.266C264.302 137.162 256.531 143.806 247.41 144.032C246.171 144.032 244.82 143.919 243.581 143.694C238.513 142.793 234.122 139.977 231.194 135.698C228.266 131.532 227.14 126.351 228.04 121.396C229.73 112.387 237.5 105.743 246.622 105.631ZM246.396 94.9324C232.545 95.1577 220.27 105.18 217.68 119.482C214.752 135.698 225.45 151.239 241.667 154.167C243.694 154.504 245.608 154.73 247.635 154.617C261.486 154.392 273.761 144.369 276.351 130.068C279.279 113.851 268.581 98.3108 252.365 95.3829C250.338 95.045 248.311 94.9324 246.396 94.9324ZM177.365 93.1306C178.604 93.1306 179.955 93.2432 181.194 93.4685C191.554 95.3829 198.536 105.405 196.622 115.766C195.045 124.662 187.275 131.306 178.153 131.532C176.914 131.532 175.563 131.419 174.324 131.194C169.257 130.293 164.865 127.477 161.937 123.198C159.009 119.032 157.883 113.851 158.784 108.896C160.586 99.8874 168.356 93.2432 177.365 93.1306ZM177.14 82.4324C163.288 82.6577 151.013 92.6802 148.423 106.982C145.495 123.198 156.194 138.739 172.41 141.667C174.437 142.005 176.351 142.23 178.378 142.117C192.23 141.892 204.504 131.869 207.095 117.568C210.022 101.351 199.324 85.8108 183.108 82.8829C181.081 82.545 179.167 82.4324 177.14 82.4324Z" fill="white"/>
<circle cx="207.5" cy="147.5" r="4.5" fill="white"/>
</g>
<defs>
<linearGradient id="paint0_linear_11420_2828" x1="208.239" y1="156.368" x2="208.239" y2="275.241" gradientUnits="userSpaceOnUse">
<stop stop-color="#4724C6"/>
<stop offset="0.013" stop-color="#4926C9"/>
<stop offset="0.158" stop-color="#6139E0"/>
<stop offset="0.313" stop-color="#7247F2"/>
<stop offset="0.48" stop-color="#7C4FFC"/>
<stop offset="0.684" stop-color="#7F52FF"/>
</linearGradient>
<linearGradient id="paint1_linear_11420_2828" x1="174.255" y1="155.518" x2="148.388" y2="241.411" gradientUnits="userSpaceOnUse">
<stop stop-color="#4724C6"/>
<stop offset="0.423" stop-color="#7F52FF"/>
</linearGradient>
<linearGradient id="paint2_linear_11420_2828" x1="37.0966" y1="101.793" x2="147.624" y2="101.793" gradientUnits="userSpaceOnUse">
<stop offset="0.577" stop-color="#7F52FF"/>
<stop offset="1" stop-color="#4724C6"/>
</linearGradient>
<linearGradient id="paint3_linear_11420_2828" x1="358.439" y1="100.908" x2="270.597" y2="151.406" gradientUnits="userSpaceOnUse">
<stop offset="0.577" stop-color="#7F52FF"/>
<stop offset="1" stop-color="#4724C6"/>
</linearGradient>
<linearGradient id="paint4_linear_11420_2828" x1="196.589" y1="118.526" x2="293.862" y2="30.8165" gradientUnits="userSpaceOnUse">
<stop stop-color="#7F52FF"/>
<stop offset="0.456" stop-color="#7D50FD"/>
<stop offset="0.651" stop-color="#764BF6"/>
<stop offset="0.796" stop-color="#6A40E9"/>
<stop offset="0.916" stop-color="#5832D8"/>
<stop offset="1" stop-color="#4724C6"/>
</linearGradient>
<clipPath id="clip0_11420_2828">
<rect width="400" height="294.482" fill="white"/>
</clipPath>
</defs>
</svg>
