<svg width="400" height="295" viewBox="0 0 400 295" fill="none" xmlns="http://www.w3.org/2000/svg">
<g clip-path="url(#clip0_11420_2785)">
<path d="M251.464 27.5901C251.464 27.5901 275.563 22.4099 288.851 40.6532C302.14 58.8964 308.784 79.7298 336.937 80.4054L398.085 56.5316C398.085 56.5316 368.806 49.3244 352.14 15.8784C342.905 -2.59006 325.113 -1.23871 317.567 1.68922L251.464 27.5901Z" fill="#D8D8D8"/>
<path d="M367.567 277.928C367.567 277.928 351.914 265.428 332.545 261.937C314.527 258.671 297.973 266.216 283.784 260.811C256.757 250.338 249.662 237.162 249.662 237.162L274.662 164.865C274.662 164.865 289.865 185.586 309.347 188.626C324.775 191.104 340.09 185.135 357.883 188.626C377.027 192.342 392.455 205.518 392.455 205.518L367.567 277.928ZM182.207 237.162C182.207 237.162 163.513 234.009 146.284 248.536C129.054 263.063 114.189 274.212 86.599 268.131L32.8828 230.293C32.8828 230.293 66.3288 239.077 95.8333 216.104C110.36 204.73 127.815 198.761 134.459 203.491L182.207 237.162Z" fill="#E2E2E2"/>
<g opacity="0.3">
<path d="M289.527 26.2387C288.851 26.2387 288.176 25.7883 287.95 25.2252C287.613 24.3243 288.063 23.4234 288.851 22.9729L327.815 7.09457C328.716 6.75673 329.617 7.20718 330.068 7.99547C330.405 8.89637 329.955 9.79727 329.167 10.2477L290.203 26.1261C289.977 26.2387 289.752 26.2387 289.527 26.2387ZM299.324 34.2342C298.649 34.2342 297.973 33.7838 297.748 33.2207C297.41 32.3198 297.86 31.4189 298.649 30.9684L337.613 15.0901C338.513 14.7522 339.414 15.2027 339.865 15.991C340.203 16.8919 339.752 17.7928 338.964 18.2432L300 34.1216C299.662 34.1216 299.437 34.2342 299.324 34.2342ZM306.531 45.2702C305.856 45.2702 305.18 44.8198 304.955 44.2567C304.617 43.3558 305.068 42.4549 305.856 42.0045L344.82 26.1261C345.721 25.7883 346.622 26.2387 347.072 27.027C347.41 27.9279 346.959 28.8288 346.171 29.2793L307.207 45.1576C306.982 45.2702 306.757 45.2702 306.531 45.2702Z" fill="#8C8C8C"/>
</g>
</g>
<defs>
<clipPath id="clip0_11420_2785">
<rect width="400" height="294.482" fill="white"/>
</clipPath>
</defs>
</svg>
