<svg viewBox="0 0 490 235" fill="none" xmlns="http://www.w3.org/2000/svg">
    <g clip-path="url(#clip0_3038_70300)">
        <path d="M300.683 38.1121L368.144 65.9849C396.048 77.5142 413.99 105.017 413.299 135.201C412.374 175.552 378.914 207.513 338.564 206.589L140.283 202.046C93.6045 200.977 60.7537 155.768 74.1554 111.041C80.4804 89.9329 96.2827 72.9788 116.895 65.1868L177.008 42.4621" stroke="#7F52FF" stroke-width="24.6218" stroke-linecap="round"/>
        <path d="M279.306 5.31613H267.444V-0.611328H208.166V5.31613H196.334C193.192 5.32445 190.181 6.57591 187.958 8.79715C185.736 11.0184 184.483 14.0289 184.473 17.1711V23.0985C184.497 30.3038 187.149 37.2528 191.932 42.6416C196.715 48.0305 203.3 51.4887 210.452 52.3675C212.326 56.8122 215.255 60.7333 218.985 63.7917C222.715 66.8502 227.134 68.9539 231.859 69.9209V88.3006H208.136V100.156H267.444V88.3006H243.721V69.9209C248.448 68.9534 252.868 66.8484 256.599 63.7882C260.33 60.7279 263.259 56.8046 265.132 52.3578L265.131 52.3802C272.294 51.513 278.894 48.0582 283.689 42.6657C288.484 37.2732 291.143 30.3145 291.167 23.0986V17.1711C291.157 14.029 289.904 11.0185 287.681 8.79724C285.459 6.576 282.448 5.32451 279.306 5.31613ZM208.166 39.801C204.718 38.5675 201.734 36.3031 199.617 33.3151C197.5 30.3271 196.354 26.7602 196.334 23.0985V17.1711H208.166V39.801ZM279.306 23.0985C279.286 26.7659 278.136 30.3381 276.014 33.329C273.892 36.3199 270.899 38.5843 267.444 39.814V17.1711H279.306V23.0985Z" fill="url(#paint0_linear_3038_70300)"/>
        <path d="M239.01 43.8965L250.3 55.1865H228.072V32.959H250.3L239.01 43.8965ZM224.14 11.9346C224.215 11.9346 224.288 11.9581 224.35 12.002C224.411 12.046 224.457 12.1091 224.481 12.1807L225.955 16.5957L230.62 16.6221C230.696 16.6222 230.769 16.6461 230.83 16.6904C230.891 16.7347 230.936 16.7967 230.96 16.8682C230.983 16.9399 230.984 17.018 230.961 17.0898C230.938 17.1615 230.893 17.2239 230.832 17.2686L227.069 20.0371L228.489 24.46C228.512 24.532 228.512 24.6099 228.488 24.6816C228.465 24.7532 228.418 24.8151 228.357 24.8594C228.296 24.9037 228.223 24.9285 228.147 24.9287C228.072 24.9289 227.998 24.9044 227.937 24.8604L224.14 22.1465L220.343 24.8604C220.281 24.9044 220.207 24.9289 220.132 24.9287C220.056 24.9286 219.983 24.9037 219.922 24.8594C219.861 24.8151 219.815 24.7532 219.791 24.6816C219.767 24.6099 219.766 24.532 219.789 24.46L221.21 20.0371L217.447 17.2686C217.387 17.2238 217.341 17.1607 217.318 17.0889C217.295 17.0171 217.295 16.9397 217.318 16.8682C217.342 16.7965 217.388 16.7347 217.449 16.6904C217.51 16.6461 217.584 16.6222 217.659 16.6221L222.324 16.5957L223.798 12.1807C223.822 12.1091 223.867 12.046 223.929 12.002C223.99 11.9579 224.064 11.9346 224.14 11.9346ZM251.497 11.9346C251.572 11.9346 251.646 11.9581 251.707 12.002C251.768 12.046 251.815 12.1091 251.839 12.1807L253.312 16.5957L257.978 16.6221C258.053 16.6222 258.126 16.6461 258.188 16.6904C258.248 16.7347 258.294 16.7967 258.317 16.8682C258.341 16.9399 258.341 17.018 258.318 17.0898C258.295 17.1615 258.25 17.2239 258.189 17.2686L254.427 20.0371L255.847 24.46C255.869 24.532 255.869 24.6099 255.846 24.6816C255.822 24.7532 255.776 24.8151 255.715 24.8594C255.654 24.9037 255.58 24.9285 255.505 24.9287C255.429 24.9289 255.355 24.9044 255.294 24.8604L251.497 22.1465L247.7 24.8604C247.639 24.9044 247.565 24.9289 247.489 24.9287C247.414 24.9286 247.34 24.9037 247.279 24.8594C247.218 24.8151 247.172 24.7532 247.148 24.6816C247.125 24.6099 247.124 24.532 247.146 24.46L248.567 20.0371L244.805 17.2686C244.744 17.2238 244.699 17.1607 244.676 17.0889C244.653 17.0171 244.652 16.9398 244.676 16.8682C244.699 16.7965 244.746 16.7347 244.807 16.6904C244.868 16.6461 244.941 16.6222 245.017 16.6221L249.682 16.5957L251.155 12.1807C251.179 12.1091 251.225 12.046 251.286 12.002C251.347 11.9579 251.422 11.9346 251.497 11.9346ZM237.819 3.72754C237.895 3.72761 237.968 3.75105 238.029 3.79492C238.091 3.83892 238.137 3.90121 238.161 3.97266L239.635 8.38867L244.3 8.41504C244.375 8.41517 244.449 8.43912 244.51 8.4834C244.571 8.52765 244.616 8.58966 244.64 8.66113C244.663 8.7327 244.663 8.81009 244.641 8.88184C244.618 8.95366 244.572 9.0168 244.512 9.06152L240.749 11.8301L242.169 16.2529C242.192 16.325 242.192 16.4029 242.168 16.4746C242.144 16.5461 242.098 16.6081 242.037 16.6523C241.976 16.6966 241.903 16.7205 241.827 16.7207C241.752 16.7209 241.678 16.6974 241.616 16.6533L237.819 13.9395L234.021 16.6533C233.96 16.6973 233.887 16.7208 233.812 16.7207C233.736 16.7206 233.662 16.6967 233.601 16.6523C233.54 16.6081 233.494 16.546 233.471 16.4746C233.447 16.4029 233.446 16.325 233.469 16.2529L234.889 11.8301L231.126 9.06152C231.065 9.01681 231.02 8.95358 230.997 8.88184C230.974 8.81011 230.975 8.73268 230.998 8.66113C231.022 8.58951 231.067 8.5267 231.128 8.48242C231.189 8.43811 231.263 8.41514 231.339 8.41504L236.004 8.38867L237.478 3.97266C237.502 3.90129 237.547 3.83888 237.608 3.79492C237.67 3.75088 237.744 3.72754 237.819 3.72754Z" fill="white"/>
        <path d="M325.7 263.3L154.674 264.558C141.299 264.647 130.519 253.957 130.437 240.6L129.484 105.639C129.39 84.0547 153.915 71.4399 171.421 84.3276L233.492 129.926C237.063 132.464 241.827 132.463 245.328 129.871L306.588 83.4285C323.822 70.3937 348.656 82.5372 348.75 104.121L349.703 239.083C349.785 252.44 338.951 263.234 325.7 263.3Z" fill="url(#paint1_linear_3038_70300)"/>
        <path d="M164.859 246.942L312.424 246.911C322.722 246.891 330.924 238.523 330.909 228.239L330.349 159.296C330.333 149.012 321.959 140.825 311.661 140.845L164.096 140.877C153.799 140.897 145.596 149.265 145.611 159.549L146.172 228.492C146.311 238.752 154.709 247.064 164.859 246.942Z" fill="black"/>
        <path d="M275.433 169.177C276.8 168.918 278.315 168.76 279.73 168.749C291.566 168.695 301.365 178.284 301.414 190.104C301.53 200.24 294.338 209.188 284.316 211.342C282.948 211.601 281.433 211.76 280.019 211.77C274.236 211.836 268.801 209.65 264.676 205.545C260.574 201.564 258.25 196.089 258.21 190.439C258.195 180.155 265.386 171.207 275.433 169.177ZM272.951 157.431C257.708 160.574 246.249 174.187 246.374 190.494C246.525 208.981 261.578 223.876 280.091 223.715C282.399 223.664 284.559 223.512 286.773 222.964C302.017 219.821 313.476 206.208 313.351 189.902C313.199 171.414 298.147 156.519 279.634 156.68C277.326 156.732 275.065 157.031 272.951 157.431ZM196.37 169.871C197.738 169.612 199.253 169.454 200.667 169.443C212.504 169.388 222.303 178.977 222.351 190.798C222.467 200.934 215.276 209.882 205.254 212.036C203.886 212.295 202.371 212.453 200.956 212.464C195.174 212.53 189.738 210.344 185.613 206.239C181.512 202.258 179.187 196.783 179.148 191.133C179.257 180.825 186.449 171.877 196.37 169.871ZM193.889 158.125C178.645 161.268 167.186 174.881 167.312 191.187C167.463 209.675 182.516 224.57 201.028 224.409C203.337 224.357 205.497 224.206 207.711 223.658C222.955 220.515 234.414 206.902 234.289 190.595C234.137 172.108 219.084 157.213 200.572 157.374C198.264 157.425 196.127 157.701 193.889 158.125Z" fill="white"/>
    </g>
    <defs>
        <linearGradient id="paint0_linear_3038_70300" x1="237.82" y1="-0.611328" x2="237.82" y2="100.156" gradientUnits="userSpaceOnUse">
            <stop stop-color="#FFBB0F"/>
            <stop offset="1" stop-color="#FF8000"/>
        </linearGradient>
        <linearGradient id="paint1_linear_3038_70300" x1="222.891" y1="193.847" x2="311.801" y2="76.7076" gradientUnits="userSpaceOnUse">
            <stop stop-color="#7F52FF"/>
            <stop offset="0.456" stop-color="#7D50FD"/>
            <stop offset="0.651" stop-color="#764BF6"/>
            <stop offset="0.796" stop-color="#6A40E9"/>
            <stop offset="0.916" stop-color="#5832D8"/>
            <stop offset="1" stop-color="#4724C6"/>
        </linearGradient>
        <clipPath id="clip0_3038_70300">
            <rect width="490" height="235" fill="white"/>
        </clipPath>
    </defs>
</svg>
